<?xml version="1.0" encoding="UTF-8"?>
<!DOCTYPE svg PUBLIC "-//W3C//DTD SVG 1.1//EN" "http://www.w3.org/Graphics/SVG/1.1/DTD/svg11.dtd">
<!-- Creator: CorelDRAW 2019 (64-Bit) -->
<svg xmlns="http://www.w3.org/2000/svg" xml:space="preserve" width="3.79552in" height="0.58665in" version="1.1" style="shape-rendering:geometricPrecision; text-rendering:geometricPrecision; image-rendering:optimizeQuality; fill-rule:evenodd; clip-rule:evenodd"
viewBox="0 0 2744.36 424.18"
 xmlns:xlink="http://www.w3.org/1999/xlink">
 <defs>
  <style type="text/css">
   <![CDATA[
    .fil0 {fill:#FEFEFE;fill-rule:nonzero}
   ]]>
  </style>
 </defs>
 <g id="Layer_x0020_1">
  <metadata id="CorelCorpID_0Corel-Layer"/>
  <path class="fil0" d="M279.15 3.58l0 186.7 -140.17 -186.7 -138.98 0 0 417.53 138.98 0 0 -202.2 149.71 202.2 129.43 0 0 -417.53 -138.98 0zm380.55 0l0 247.53c0,22.67 -5.96,50.1 -34.6,50.1 -33.4,0 -35.19,-27.44 -35.19,-50.1l0 -247.53 -138.98 0 0 300.62c0,64.42 52.49,116.91 116.91,116.91l113.93 0c64.42,0 116.91,-52.49 116.91,-116.91l0 -300.62 -138.98 0zm303.01 0c-184.91,0 -185.5,268.41 4.17,268.41l41.16 0c17.3,0.5 26.25,4.08 26.25,15.21 0,14.12 -11.93,16.4 -35.79,16.4l-174.17 0 0 117.5 209.96 0c185.5,0 186.1,-267.22 -3.58,-267.22l-41.15 0c-17.3,-0.59 -26.25,-4.18 -26.25,-16.4 0,-14.61 11.93,-16.4 35.79,-16.4l543.98 0 0 -117.5 -580.36 0zm369.81 417.53l210.55 0 0 -117.5 -174.17 0c-23.86,0 -35.79,-2.29 -35.79,-16.4 0,-13.52 11.93,-15.81 35.79,-15.81l174.17 0 0 -117.5 -206.38 0c-189.68,0 -189.08,267.22 -4.18,267.22zm524.29 -417.53l0 186.7 -140.17 -186.7 -138.98 0 0 417.53 138.98 0 0 -202.2 149.71 202.2 129.43 0 0 -417.53 -138.98 0zm341.78 117.5l174.17 0 0 -117.5 -210.55 0c-184.91,0 -185.5,267.81 4.17,267.81l41.16 0c17.3,0.6 26.25,4.18 26.25,15.51 0,14.32 -11.93,16.7 -35.79,16.7l-174.17 0 0 117.5 209.96 0c185.5,0 186.1,-267.81 -3.58,-267.81l-41.15 0c-17.3,-0.6 -26.25,-4.18 -26.25,-16.11 0,-14.32 11.93,-16.1 35.79,-16.1zm336.41 128.24l209.36 0c0,-135.4 -22.67,-249.32 -178.34,-249.32 -97.82,0 -178.35,66.21 -178.35,205.78 0,148.52 94.84,221.29 212.94,218.31l136.59 0 0.59 -117.5 -137.19 0c-39.37,0 -65.61,-16.11 -65.61,-57.26zm79.93 -72.17l-79.33 0c0,-37.58 19.68,-56.07 39.37,-56.07 19.68,0 39.96,19.09 39.96,56.07z"/>
 </g>
</svg>
